<?xml version="1.0" encoding="UTF-8" standalone="no"?>
<!DOCTYPE svg PUBLIC "-//W3C//DTD SVG 1.1//EN"
 "http://www.w3.org/Graphics/SVG/1.1/DTD/svg11.dtd">
<!-- Generated by graphviz version 5.0.0 (20220707.1540)
 -->
<!-- Pages: 1 -->
<svg width="1213pt" height="958pt"
 viewBox="0.00 0.00 1213.21 958.31" xmlns="http://www.w3.org/2000/svg" xmlns:xlink="http://www.w3.org/1999/xlink">
<g id="graph0" class="graph" transform="scale(1 1) rotate(0) translate(4 954.31)">
<polygon fill="#ffffff" stroke="transparent" points="-4,4 -4,-954.31 1209.21,-954.31 1209.21,4 -4,4"/>
<text text-anchor="middle" x="602.6" y="-8.2" font-family="Times,serif" font-size="14.00">undefined &#45; undefined &#45; undefined &#45; undefined (Mon Feb 10 2025 21:11:09 GMT+0000 (Greenwich Mean Time))</text>
<g id="clust1" class="cluster">
<title>cluster_ports</title>
<polygon fill="#ffffff" stroke="black" points="8,-275.6 8,-355.71 118,-355.71 118,-275.6 8,-275.6"/>
<text text-anchor="middle" x="63" y="-339.11" font-family="Times,serif" font-size="14.00">external ports</text>
</g>
<g id="clust2" class="cluster">
<title>cluster_services</title>
<polygon fill="#efefef" stroke="black" points="126,-32.8 126,-942.31 1195,-942.31 1195,-32.8 126,-32.8"/>
<text text-anchor="middle" x="660.5" y="-925.71" font-family="Times,serif" font-size="14.00">Host undefined</text>
</g>
<g id="clust3" class="cluster">
<title>cluster_web</title>
<polygon fill="#ffffff" stroke="black" points="273,-186.8 273,-909.51 825,-909.51 825,-186.8 273,-186.8"/>
<text text-anchor="middle" x="549" y="-892.91" font-family="Times,serif" font-size="14.00">Web Based Services</text>
</g>
<g id="clust4" class="cluster">
<title>cluster_other</title>
<polygon fill="#ffffff" stroke="black" points="845,-390.51 845,-667.71 995,-667.71 995,-390.51 845,-390.51"/>
<text text-anchor="middle" x="920" y="-651.11" font-family="Times,serif" font-size="14.00">Other Services</text>
</g>
<g id="clust5" class="cluster">
<title>cluster_volumes</title>
<polygon fill="#ffffff" stroke="black" points="1003,-40.8 1003,-556.11 1175,-556.11 1175,-40.8 1003,-40.8"/>
<text text-anchor="middle" x="1089" y="-539.51" font-family="Times,serif" font-size="14.00">volumes</text>
</g>
<!-- 80 -->
<g id="node1" class="node">
<title>80</title>
<ellipse fill="#ffffff" stroke="black" cx="34" cy="-303.25" rx="18" ry="18"/>
<text text-anchor="middle" x="34" y="-300.25" font-family="Arial" font-size="10.00">80</text>
</g>
<!-- nginx -->
<g id="node10" class="node">
<title>nginx</title>
<polygon fill="#ffffff" stroke="orange" points="631,-230.8 577,-230.8 577,-226.8 573,-226.8 573,-222.8 577,-222.8 577,-202.8 573,-202.8 573,-198.8 577,-198.8 577,-194.8 631,-194.8 631,-230.8"/>
<polyline fill="none" stroke="orange" points="577,-226.8 581,-226.8 581,-222.8 577,-222.8 "/>
<polyline fill="none" stroke="orange" points="577,-202.8 581,-202.8 581,-198.8 577,-198.8 "/>
<text text-anchor="middle" x="604" y="-209.8" font-family="Arial" font-size="10.00">nginx</text>
</g>
<!-- 80&#45;&gt;nginx -->
<g id="edge30" class="edge">
<title>80&#45;&gt;nginx</title>
<path fill="none" stroke="black" d="M44.81,-288.53C49.31,-283.72 54.91,-278.73 61,-275.6 123.58,-243.46 147.25,-257.93 217,-248.8 344.62,-232.09 496.97,-220.85 566.31,-216.2"/>
<polygon fill="black" stroke="black" points="566.96,-219.67 576.7,-215.52 566.49,-212.68 566.96,-219.67"/>
</g>
<!-- 443 -->
<g id="node2" class="node">
<title>443</title>
<ellipse fill="#ffffff" stroke="black" cx="90" cy="-303.25" rx="19.81" ry="19.81"/>
<text text-anchor="middle" x="90" y="-300.25" font-family="Arial" font-size="10.00">443</text>
</g>
<!-- 443&#45;&gt;nginx -->
<g id="edge31" class="edge">
<title>443&#45;&gt;nginx</title>
<path fill="none" stroke="black" d="M108.64,-296.4C144.28,-285.43 224.72,-261.72 294,-248.8 391.49,-230.62 508.11,-220.54 566.62,-216.28"/>
<polygon fill="black" stroke="black" points="567.13,-219.75 576.85,-215.55 566.63,-212.77 567.13,-219.75"/>
</g>
<!-- doltlabapi (web:doltlabapi.local.vexstud.io) -->
<g id="node3" class="node">
<title>doltlabapi (web:doltlabapi.local.vexstud.io)</title>
<polygon fill="#ffffff" stroke="orange" points="705.83,-876.71 502.17,-876.71 502.17,-872.71 498.17,-872.71 498.17,-868.71 502.17,-868.71 502.17,-848.71 498.17,-848.71 498.17,-844.71 502.17,-844.71 502.17,-840.71 705.83,-840.71 705.83,-876.71"/>
<polyline fill="none" stroke="orange" points="502.17,-872.71 506.17,-872.71 506.17,-868.71 502.17,-868.71 "/>
<polyline fill="none" stroke="orange" points="502.17,-848.71 506.17,-848.71 506.17,-844.71 502.17,-844.71 "/>
<text text-anchor="middle" x="604" y="-855.71" font-family="Arial" font-size="10.00">doltlabapi (web:doltlabapi.local.vexstud.io)</text>
</g>
<!-- doltlabfileserviceapi (web:doltlabfileserviceapi.local.vexstud.io) -->
<g id="node4" class="node">
<title>doltlabfileserviceapi (web:doltlabfileserviceapi.local.vexstud.io)</title>
<polygon fill="#ffffff" stroke="orange" points="750.25,-803.71 457.75,-803.71 457.75,-799.71 453.75,-799.71 453.75,-795.71 457.75,-795.71 457.75,-775.71 453.75,-775.71 453.75,-771.71 457.75,-771.71 457.75,-767.71 750.25,-767.71 750.25,-803.71"/>
<polyline fill="none" stroke="orange" points="457.75,-799.71 461.75,-799.71 461.75,-795.71 457.75,-795.71 "/>
<polyline fill="none" stroke="orange" points="457.75,-775.71 461.75,-775.71 461.75,-771.71 457.75,-771.71 "/>
<text text-anchor="middle" x="604" y="-782.71" font-family="Arial" font-size="10.00">doltlabfileserviceapi (web:doltlabfileserviceapi.local.vexstud.io)</text>
</g>
<!-- doltlabapi (web:doltlabapi.local.vexstud.io)&#45;&gt;doltlabfileserviceapi (web:doltlabfileserviceapi.local.vexstud.io) -->
<!-- volume: doltlab&#45;secrets -->
<g id="node14" class="node">
<title>volume: doltlab&#45;secrets</title>
<polygon fill="#ffffff" stroke="blue" points="1148.32,-523.31 1145.32,-527.31 1124.32,-527.31 1121.32,-523.31 1029.68,-523.31 1029.68,-487.31 1148.32,-487.31 1148.32,-523.31"/>
<text text-anchor="middle" x="1089" y="-502.31" font-family="Arial" font-size="10.00">volume: doltlab&#45;secrets</text>
</g>
<!-- doltlabapi (web:doltlabapi.local.vexstud.io)&#45;&gt;volume: doltlab&#45;secrets -->
<g id="edge18" class="edge">
<title>doltlabapi (web:doltlabapi.local.vexstud.io)&#45;&gt;volume: doltlab&#45;secrets</title>
<path fill="none" stroke="blue" stroke-dasharray="5,2" d="M705.71,-855.46C872.54,-850.39 1186,-834.52 1186,-786.71 1186,-786.71 1186,-786.71 1186,-615.91 1186,-578.88 1154.57,-548.49 1127.49,-529.19"/>
<polygon fill="blue" stroke="blue" points="1129.13,-526.06 1118.89,-523.31 1125.18,-531.84 1129.13,-526.06"/>
<text text-anchor="middle" x="1162.05" y="-527.51" font-family="Times,serif" font-size="14.00">vol:/run/secrets</text>
</g>
<!-- doltlabgraphql (web:doltlabgraphql.local.vexstud.io) -->
<g id="node5" class="node">
<title>doltlabgraphql (web:doltlabgraphql.local.vexstud.io)</title>
<polygon fill="#ffffff" stroke="orange" points="725.86,-730.71 482.14,-730.71 482.14,-726.71 478.14,-726.71 478.14,-722.71 482.14,-722.71 482.14,-702.71 478.14,-702.71 478.14,-698.71 482.14,-698.71 482.14,-694.71 725.86,-694.71 725.86,-730.71"/>
<polyline fill="none" stroke="orange" points="482.14,-726.71 486.14,-726.71 486.14,-722.71 482.14,-722.71 "/>
<polyline fill="none" stroke="orange" points="482.14,-702.71 486.14,-702.71 486.14,-698.71 482.14,-698.71 "/>
<text text-anchor="middle" x="604" y="-709.71" font-family="Arial" font-size="10.00">doltlabgraphql (web:doltlabgraphql.local.vexstud.io)</text>
</g>
<!-- doltlabfileserviceapi (web:doltlabfileserviceapi.local.vexstud.io)&#45;&gt;doltlabgraphql (web:doltlabgraphql.local.vexstud.io) -->
<!-- volume: doltlab&#45;user&#45;uploads -->
<g id="node16" class="node">
<title>volume: doltlab&#45;user&#45;uploads</title>
<polygon fill="#ffffff" stroke="blue" points="1161.4,-321.25 1158.4,-325.25 1137.4,-325.25 1134.4,-321.25 1016.6,-321.25 1016.6,-285.25 1161.4,-285.25 1161.4,-321.25"/>
<text text-anchor="middle" x="1089" y="-300.25" font-family="Arial" font-size="10.00">volume: doltlab&#45;user&#45;uploads</text>
</g>
<!-- doltlabfileserviceapi (web:doltlabfileserviceapi.local.vexstud.io)&#45;&gt;volume: doltlab&#45;user&#45;uploads -->
<g id="edge21" class="edge">
<title>doltlabfileserviceapi (web:doltlabfileserviceapi.local.vexstud.io)&#45;&gt;volume: doltlab&#45;user&#45;uploads</title>
<path fill="none" stroke="blue" stroke-dasharray="5,2" d="M750.26,-775.49C890.52,-757.6 1092.73,-705.69 1175,-556.11 1210.68,-491.24 1187.57,-457.93 1157,-390.51 1146.51,-367.38 1128.53,-344.96 1113.69,-328.79"/>
<polygon fill="blue" stroke="blue" points="1116.11,-326.25 1106.7,-321.37 1111.01,-331.05 1116.11,-326.25"/>
<text text-anchor="middle" x="1036.33" y="-325.57" font-family="Times,serif" font-size="14.00">vol:/doltlab&#45;user&#45;uploads</text>
</g>
<!-- doltlabremoteapi (web:doltlabremoteapi.local.vexstud.io) -->
<g id="node6" class="node">
<title>doltlabremoteapi (web:doltlabremoteapi.local.vexstud.io)</title>
<polygon fill="#ffffff" stroke="orange" points="736.58,-634.91 471.42,-634.91 471.42,-630.91 467.42,-630.91 467.42,-626.91 471.42,-626.91 471.42,-606.91 467.42,-606.91 467.42,-602.91 471.42,-602.91 471.42,-598.91 736.58,-598.91 736.58,-634.91"/>
<polyline fill="none" stroke="orange" points="471.42,-630.91 475.42,-630.91 475.42,-626.91 471.42,-626.91 "/>
<polyline fill="none" stroke="orange" points="471.42,-606.91 475.42,-606.91 475.42,-602.91 471.42,-602.91 "/>
<text text-anchor="middle" x="604" y="-613.91" font-family="Arial" font-size="10.00">doltlabremoteapi (web:doltlabremoteapi.local.vexstud.io)</text>
</g>
<!-- doltlabgraphql (web:doltlabgraphql.local.vexstud.io)&#45;&gt;doltlabremoteapi (web:doltlabremoteapi.local.vexstud.io) -->
<!-- doltlabenvoy -->
<g id="node13" class="node">
<title>doltlabenvoy</title>
<polygon fill="#ffffff" stroke="black" points="956.15,-434.51 883.85,-434.51 883.85,-398.51 956.15,-398.51 956.15,-434.51"/>
<text text-anchor="middle" x="920" y="-413.51" font-family="Arial" font-size="10.00">doltlabenvoy</text>
</g>
<!-- doltlabgraphql (web:doltlabgraphql.local.vexstud.io)&#45;&gt;doltlabenvoy -->
<g id="edge23" class="edge">
<title>doltlabgraphql (web:doltlabgraphql.local.vexstud.io)&#45;&gt;doltlabenvoy</title>
<path fill="none" stroke="purple" stroke-dasharray="5,2" d="M482.3,-699.45C446.36,-694.2 407.23,-686.86 372,-676.71 266.67,-646.34 94.02,-656.79 152.56,-564.11 194.99,-496.93 237.49,-508.74 314,-487.31 341.7,-479.55 800.53,-438.62 829,-434.51 843.59,-432.4 859.41,-429.62 873.7,-426.92"/>
<polygon fill="purple" stroke="purple" points="874.64,-430.31 883.8,-424.98 873.32,-423.43 874.64,-430.31"/>
<text text-anchor="middle" x="215.22" y="-568.31" font-family="Times,serif" font-size="14.00">DOLTHUBAPI_URL</text>
</g>
<!-- doltlabremoteapihttp (web:doltlabremoteapihttp.local.vexstud.io) -->
<g id="node7" class="node">
<title>doltlabremoteapihttp (web:doltlabremoteapihttp.local.vexstud.io)</title>
<polygon fill="#ffffff" stroke="orange" points="753.44,-523.31 454.56,-523.31 454.56,-519.31 450.56,-519.31 450.56,-515.31 454.56,-515.31 454.56,-495.31 450.56,-495.31 450.56,-491.31 454.56,-491.31 454.56,-487.31 753.44,-487.31 753.44,-523.31"/>
<polyline fill="none" stroke="orange" points="454.56,-519.31 458.56,-519.31 458.56,-515.31 454.56,-515.31 "/>
<polyline fill="none" stroke="orange" points="454.56,-495.31 458.56,-495.31 458.56,-491.31 454.56,-491.31 "/>
<text text-anchor="middle" x="604" y="-502.31" font-family="Arial" font-size="10.00">doltlabremoteapihttp (web:doltlabremoteapihttp.local.vexstud.io)</text>
</g>
<!-- doltlabremoteapi (web:doltlabremoteapi.local.vexstud.io)&#45;&gt;doltlabremoteapihttp (web:doltlabremoteapihttp.local.vexstud.io) -->
<!-- volume: doltlab&#45;remote&#45;storage -->
<g id="node17" class="node">
<title>volume: doltlab&#45;remote&#45;storage</title>
<polygon fill="#ffffff" stroke="blue" points="1166.4,-230.8 1163.4,-234.8 1142.4,-234.8 1139.4,-230.8 1011.6,-230.8 1011.6,-194.8 1166.4,-194.8 1166.4,-230.8"/>
<text text-anchor="middle" x="1089" y="-209.8" font-family="Arial" font-size="10.00">volume: doltlab&#45;remote&#45;storage</text>
</g>
<!-- doltlabremoteapi (web:doltlabremoteapi.local.vexstud.io)&#45;&gt;volume: doltlab&#45;remote&#45;storage -->
<g id="edge25" class="edge">
<title>doltlabremoteapi (web:doltlabremoteapi.local.vexstud.io)&#45;&gt;volume: doltlab&#45;remote&#45;storage</title>
<path fill="none" stroke="blue" stroke-dasharray="5,2" d="M736.6,-599.69C788.57,-585.21 836,-557.87 836,-506.31 836,-506.31 836,-506.31 836,-302.25 836,-266.26 928.42,-241.46 1001.54,-227.48"/>
<polygon fill="blue" stroke="blue" points="1002.53,-230.85 1011.72,-225.58 1001.24,-223.97 1002.53,-230.85"/>
<text text-anchor="middle" x="935.13" y="-229.78" font-family="Times,serif" font-size="14.00">vol:/doltlab&#45;remote&#45;storage</text>
</g>
<!-- doltlabui (web:doltlabui.local.vexstud.io) -->
<g id="node8" class="node">
<title>doltlabui (web:doltlabui.local.vexstud.io)</title>
<polygon fill="#ffffff" stroke="orange" points="700.21,-434.51 507.79,-434.51 507.79,-430.51 503.79,-430.51 503.79,-426.51 507.79,-426.51 507.79,-406.51 503.79,-406.51 503.79,-402.51 507.79,-402.51 507.79,-398.51 700.21,-398.51 700.21,-434.51"/>
<polyline fill="none" stroke="orange" points="507.79,-430.51 511.79,-430.51 511.79,-426.51 507.79,-426.51 "/>
<polyline fill="none" stroke="orange" points="507.79,-406.51 511.79,-406.51 511.79,-402.51 507.79,-402.51 "/>
<text text-anchor="middle" x="604" y="-413.51" font-family="Arial" font-size="10.00">doltlabui (web:doltlabui.local.vexstud.io)</text>
</g>
<!-- doltlabremoteapihttp (web:doltlabremoteapihttp.local.vexstud.io)&#45;&gt;doltlabui (web:doltlabui.local.vexstud.io) -->
<!-- doltlabui (web:doltlabui.local.vexstud.io)&#45;&gt;doltlabgraphql (web:doltlabgraphql.local.vexstud.io) -->
<g id="edge28" class="edge">
<title>doltlabui (web:doltlabui.local.vexstud.io)&#45;&gt;doltlabgraphql (web:doltlabgraphql.local.vexstud.io)</title>
<path fill="none" stroke="purple" stroke-dasharray="5,2" d="M534.84,-434.64C504.12,-445.33 469.65,-462.01 446,-487.31 423.78,-511.08 443.94,-533.04 421,-556.11 413.76,-563.39 405.2,-555.69 399.34,-564.11 395.07,-570.24 397.04,-573.8 399.34,-580.91 413.97,-626.18 423.36,-639.95 462,-667.71 475.75,-677.59 491.79,-685.3 508.03,-691.3"/>
<polygon fill="purple" stroke="purple" points="507,-694.64 517.6,-694.63 509.31,-688.03 507,-694.64"/>
<text text-anchor="middle" x="499.33" y="-568.31" font-family="Times,serif" font-size="14.00">INTERNAL_GRAPHQLAPI_URL</text>
</g>
<!-- mailhog (web:mailhog.local.vexstud.io) -->
<g id="node9" class="node">
<title>mailhog (web:mailhog.local.vexstud.io)</title>
<polygon fill="#ffffff" stroke="orange" points="697.75,-321.25 510.25,-321.25 510.25,-317.25 506.25,-317.25 506.25,-313.25 510.25,-313.25 510.25,-293.25 506.25,-293.25 506.25,-289.25 510.25,-289.25 510.25,-285.25 697.75,-285.25 697.75,-321.25"/>
<polyline fill="none" stroke="orange" points="510.25,-317.25 514.25,-317.25 514.25,-313.25 510.25,-313.25 "/>
<polyline fill="none" stroke="orange" points="510.25,-293.25 514.25,-293.25 514.25,-289.25 510.25,-289.25 "/>
<text text-anchor="middle" x="604" y="-300.25" font-family="Arial" font-size="10.00">mailhog (web:mailhog.local.vexstud.io)</text>
</g>
<!-- doltlabui (web:doltlabui.local.vexstud.io)&#45;&gt;mailhog (web:mailhog.local.vexstud.io) -->
<!-- mailhog (web:mailhog.local.vexstud.io)&#45;&gt;nginx -->
<!-- nginx&#45;&gt;doltlabapi (web:doltlabapi.local.vexstud.io) -->
<g id="edge17" class="edge">
<title>nginx&#45;&gt;doltlabapi (web:doltlabapi.local.vexstud.io)</title>
<path fill="none" stroke="orange" stroke-dasharray="5,2" d="M576.66,-213.95C531.91,-215.04 440.89,-220.87 370,-248.8 333.25,-263.28 299,-262.76 299,-302.25 299,-786.71 299,-786.71 299,-786.71 299,-827.74 405.02,-845.07 492.05,-852.38"/>
<polygon fill="orange" stroke="orange" points="491.77,-855.87 502.02,-853.18 492.33,-848.89 491.77,-855.87"/>
<text text-anchor="middle" x="329.72" y="-568.31" font-family="Times,serif" font-size="14.00">port:60051</text>
</g>
<!-- nginx&#45;&gt;doltlabfileserviceapi (web:doltlabfileserviceapi.local.vexstud.io) -->
<g id="edge20" class="edge">
<title>nginx&#45;&gt;doltlabfileserviceapi (web:doltlabfileserviceapi.local.vexstud.io)</title>
<path fill="none" stroke="orange" stroke-dasharray="5,2" d="M576.83,-216.89C508.69,-225.39 336,-251.91 336,-302.25 336,-461.91 336,-461.91 336,-461.91 336,-503.78 310.79,-522.36 335.56,-556.11 342.57,-565.67 353.03,-555.34 361,-564.11 392.66,-598.94 357.02,-628.46 383,-667.71 415.74,-717.18 476.49,-747.17 526.02,-764.38"/>
<polygon fill="orange" stroke="orange" points="525.17,-767.79 535.77,-767.66 527.4,-761.16 525.17,-767.79"/>
<text text-anchor="middle" x="365.72" y="-501.11" font-family="Times,serif" font-size="14.00">port:60055</text>
</g>
<!-- nginx&#45;&gt;doltlabgraphql (web:doltlabgraphql.local.vexstud.io) -->
<g id="edge22" class="edge">
<title>nginx&#45;&gt;doltlabgraphql (web:doltlabgraphql.local.vexstud.io)</title>
<path fill="none" stroke="orange" stroke-dasharray="5,2" d="M576.74,-215.08C544.64,-217.65 490.67,-225.41 451,-248.8 437.23,-256.92 433.48,-260.98 427,-275.6 394.97,-347.87 415.53,-373.77 408.56,-452.51 404.49,-498.5 421.43,-514.71 401,-556.11 398.63,-560.91 394.19,-559.23 392,-564.11 388.94,-570.92 391.61,-573.45 392,-580.91 394,-619.64 375.13,-638.82 401,-667.71 411.82,-679.79 440.1,-688.81 472.23,-695.44"/>
<polygon fill="orange" stroke="orange" points="471.82,-698.92 482.31,-697.42 473.17,-692.05 471.82,-698.92"/>
<text text-anchor="middle" x="435.22" y="-456.71" font-family="Times,serif" font-size="14.00">port:9000</text>
</g>
<!-- nginx&#45;&gt;doltlabremoteapi (web:doltlabremoteapi.local.vexstud.io) -->
<g id="edge24" class="edge">
<title>nginx&#45;&gt;doltlabremoteapi (web:doltlabremoteapi.local.vexstud.io)</title>
<path fill="none" stroke="orange" stroke-dasharray="5,2" d="M631.27,-219.99C650.66,-225.34 676.6,-234.51 696,-248.8 708.18,-257.77 709.34,-262.55 717,-275.6 765.72,-358.54 758.89,-391.16 762,-487.31 762.99,-517.87 779.38,-530.95 762,-556.11 749.84,-573.71 731.78,-586.14 712.17,-594.91"/>
<polygon fill="orange" stroke="orange" points="710.66,-591.75 702.76,-598.81 713.33,-598.22 710.66,-591.75"/>
<text text-anchor="middle" x="790.72" y="-412.31" font-family="Times,serif" font-size="14.00">port:50051</text>
</g>
<!-- nginx&#45;&gt;doltlabremoteapihttp (web:doltlabremoteapihttp.local.vexstud.io) -->
<g id="edge26" class="edge">
<title>nginx&#45;&gt;doltlabremoteapihttp (web:doltlabremoteapihttp.local.vexstud.io)</title>
<path fill="none" stroke="orange" stroke-dasharray="5,2" d="M631.42,-221.83C656.04,-230.64 690.73,-247.43 707,-275.6 732.55,-319.83 708.56,-339.43 709,-390.51 709.17,-410.06 718.24,-417.27 709,-434.51 697.69,-455.6 676.9,-471.41 656.78,-482.6"/>
<polygon fill="orange" stroke="orange" points="655.14,-479.5 647.92,-487.26 658.4,-485.7 655.14,-479.5"/>
<text text-anchor="middle" x="730.22" y="-367.91" font-family="Times,serif" font-size="14.00">port:80</text>
</g>
<!-- nginx&#45;&gt;doltlabui (web:doltlabui.local.vexstud.io) -->
<g id="edge27" class="edge">
<title>nginx&#45;&gt;doltlabui (web:doltlabui.local.vexstud.io)</title>
<path fill="none" stroke="orange" stroke-dasharray="5,2" d="M576.95,-215.52C540.25,-219.48 475.92,-232.53 446.56,-275.6 426.5,-305.02 426.34,-326.4 446.56,-355.71 459.09,-373.87 477.9,-386.52 498.22,-395.33"/>
<polygon fill="orange" stroke="orange" points="497.05,-398.63 507.64,-399.11 499.66,-392.13 497.05,-398.63"/>
<text text-anchor="middle" x="473.22" y="-299.05" font-family="Times,serif" font-size="14.00">port:3000</text>
</g>
<!-- nginx&#45;&gt;mailhog (web:mailhog.local.vexstud.io) -->
<g id="edge29" class="edge">
<title>nginx&#45;&gt;mailhog (web:mailhog.local.vexstud.io)</title>
<path fill="none" stroke="orange" stroke-dasharray="5,2" d="M576.75,-223.05C564.96,-228.56 552.32,-236.86 545.56,-248.8 539.01,-260.35 545.72,-270.79 556.61,-279.32"/>
<polygon fill="orange" stroke="orange" points="554.93,-282.41 565.16,-285.18 558.89,-276.64 554.93,-282.41"/>
<text text-anchor="middle" x="572.22" y="-253" font-family="Times,serif" font-size="14.00">port:8025</text>
</g>
<!-- volume: /Users/hasnat/ssl&#45;certs -->
<g id="node18" class="node">
<title>volume: /Users/hasnat/ssl&#45;certs</title>
<polygon fill="#ffffff" stroke="blue" points="1166.99,-157.8 1163.99,-161.8 1142.99,-161.8 1139.99,-157.8 1011.01,-157.8 1011.01,-121.8 1166.99,-121.8 1166.99,-157.8"/>
<text text-anchor="middle" x="1089" y="-136.8" font-family="Arial" font-size="10.00">volume: /Users/hasnat/ssl&#45;certs</text>
</g>
<!-- nginx&#45;&gt;volume: /Users/hasnat/ssl&#45;certs -->
<g id="edge32" class="edge">
<title>nginx&#45;&gt;volume: /Users/hasnat/ssl&#45;certs</title>
<path fill="none" stroke="blue" stroke-dasharray="5,2" d="M631.11,-207.83C700.83,-197.63 888.68,-170.13 1000.93,-153.69"/>
<polygon fill="blue" stroke="blue" points="1001.5,-157.15 1010.88,-152.24 1000.48,-150.22 1001.5,-157.15"/>
<text text-anchor="middle" x="956.84" y="-156.44" font-family="Times,serif" font-size="14.00">vol:/etc/nginx/certs</text>
</g>
<!-- volume: /var/run/docker.sock -->
<g id="node19" class="node">
<title>volume: /var/run/docker.sock</title>
<polygon fill="#ffffff" stroke="blue" points="1160.83,-84.8 1157.83,-88.8 1136.83,-88.8 1133.83,-84.8 1017.17,-84.8 1017.17,-48.8 1160.83,-48.8 1160.83,-84.8"/>
<text text-anchor="middle" x="1089" y="-63.8" font-family="Arial" font-size="10.00">volume: /var/run/docker.sock</text>
</g>
<!-- nginx&#45;&gt;volume: /var/run/docker.sock -->
<g id="edge33" class="edge">
<title>nginx&#45;&gt;volume: /var/run/docker.sock</title>
<path fill="none" stroke="blue" stroke-dasharray="5,2" d="M631.35,-210.24C742.77,-203.73 1157.41,-178.23 1176,-157.8 1186.77,-145.97 1183.78,-135.78 1176,-121.8 1168.63,-108.55 1156.51,-98.13 1143.62,-90.13"/>
<polygon fill="blue" stroke="blue" points="1145.04,-86.91 1134.63,-84.97 1141.56,-92.98 1145.04,-86.91"/>
<text text-anchor="middle" x="1075.33" y="-89.17" font-family="Times,serif" font-size="14.00">vol:/tmp/docker.sock</text>
</g>
<!-- doltlab&#45;secrets&#45;provisioner -->
<g id="node11" class="node">
<title>doltlab&#45;secrets&#45;provisioner</title>
<polygon fill="#ffffff" stroke="black" points="986.77,-634.91 853.23,-634.91 853.23,-598.91 986.77,-598.91 986.77,-634.91"/>
<text text-anchor="middle" x="920" y="-613.91" font-family="Arial" font-size="10.00">doltlab&#45;secrets&#45;provisioner</text>
</g>
<!-- doltlabdb -->
<g id="node12" class="node">
<title>doltlabdb</title>
<polygon fill="#ffffff" stroke="black" points="948.09,-523.31 891.91,-523.31 891.91,-487.31 948.09,-487.31 948.09,-523.31"/>
<text text-anchor="middle" x="920" y="-502.31" font-family="Arial" font-size="10.00">doltlabdb</text>
</g>
<!-- doltlab&#45;secrets&#45;provisioner&#45;&gt;doltlabdb -->
<!-- doltlab&#45;secrets&#45;provisioner&#45;&gt;volume: doltlab&#45;secrets -->
<g id="edge16" class="edge">
<title>doltlab&#45;secrets&#45;provisioner&#45;&gt;volume: doltlab&#45;secrets</title>
<path fill="none" stroke="blue" stroke-dasharray="5,2" d="M946.41,-598.78C975.43,-579.96 1022.17,-549.65 1054.17,-528.9"/>
<polygon fill="blue" stroke="blue" points="1056.29,-531.69 1062.78,-523.31 1052.48,-525.82 1056.29,-531.69"/>
<text text-anchor="middle" x="1019.62" y="-527.51" font-family="Times,serif" font-size="14.00">vol:/run/secrets</text>
</g>
<!-- doltlabdb&#45;&gt;doltlabenvoy -->
<!-- volume: doltlabdb&#45;data -->
<g id="node15" class="node">
<title>volume: doltlabdb&#45;data</title>
<polygon fill="#ffffff" stroke="blue" points="1147.68,-434.51 1144.68,-438.51 1123.68,-438.51 1120.68,-434.51 1030.32,-434.51 1030.32,-398.51 1147.68,-398.51 1147.68,-434.51"/>
<text text-anchor="middle" x="1089" y="-413.51" font-family="Arial" font-size="10.00">volume: doltlabdb&#45;data</text>
</g>
<!-- doltlabdb&#45;&gt;volume: doltlabdb&#45;data -->
<g id="edge19" class="edge">
<title>doltlabdb&#45;&gt;volume: doltlabdb&#45;data</title>
<path fill="none" stroke="blue" stroke-dasharray="5,2" d="M948.29,-489.78C975.11,-476 1015.77,-455.12 1046.49,-439.34"/>
<polygon fill="blue" stroke="blue" points="1048.38,-442.3 1055.68,-434.62 1045.19,-436.08 1048.38,-442.3"/>
<text text-anchor="middle" x="980.25" y="-438.82" font-family="Times,serif" font-size="14.00">vol:/var/lib/postgresql/data</text>
</g>
<!-- volume: doltlab&#45;secrets&#45;&gt;volume: doltlab&#45;secrets -->
<!-- volume: doltlab&#45;secrets&#45;&gt;volume: doltlabdb&#45;data -->
<!-- volume: doltlabdb&#45;data&#45;&gt;volume: doltlab&#45;user&#45;uploads -->
<!-- volume: doltlab&#45;user&#45;uploads&#45;&gt;volume: doltlab&#45;remote&#45;storage -->
<!-- volume: doltlab&#45;remote&#45;storage&#45;&gt;volume: /Users/hasnat/ssl&#45;certs -->
<!-- volume: /Users/hasnat/ssl&#45;certs&#45;&gt;volume: /var/run/docker.sock -->
</g>
</svg>
